<svg width="48" height="48" viewBox="0 0 48 48" fill="none" xmlns="http://www.w3.org/2000/svg">
<path d="M24 8.21057C20.2526 8.21057 16.5893 9.32181 13.4734 11.4038C10.3575 13.4857 7.929 16.4449 6.49491 19.9071C5.06083 23.3693 4.68561 27.179 5.4167 30.8544C6.14779 34.5298 7.95235 37.9059 10.6022 40.5557C13.252 43.2056 16.6281 45.0101 20.3036 45.7412C23.979 46.4723 27.7887 46.0971 31.2508 44.663C34.713 43.2289 37.6722 40.8004 39.7542 37.6845C41.8361 34.5686 42.9474 30.9054 42.9474 27.1579C42.9474 22.1328 40.9511 17.3134 37.3978 13.7601C33.8445 10.2068 29.0252 8.21057 24 8.21057ZM24 41.8948C21.0853 41.8948 18.2361 41.0305 15.8127 39.4112C13.3892 37.7919 11.5003 35.4903 10.3849 32.7975C9.26954 30.1047 8.9777 27.1416 9.54632 24.2829C10.1149 21.4243 11.5185 18.7984 13.5795 16.7374C15.6405 14.6764 18.2663 13.2729 21.125 12.7043C23.9837 12.1356 26.9467 12.4275 29.6395 13.5429C32.3324 14.6583 34.6339 16.5471 36.2532 18.9706C37.8725 21.394 38.7368 24.2433 38.7368 27.1579C38.7368 31.0664 37.1842 34.8148 34.4205 37.5785C31.6568 40.3421 27.9085 41.8948 24 41.8948ZM43.3474 7.81056C40.8629 5.29013 37.9092 3.28041 34.6526 1.89478L33.0105 5.76846C35.7624 6.9371 38.2639 8.62384 40.3789 10.7369C41.9242 12.2965 43.2488 14.0602 44.3158 15.979L48 13.8737C46.736 11.6479 45.1703 9.60752 43.3474 7.81056ZM14.9895 5.7053L13.3474 1.89478C10.0908 3.28041 7.13705 5.29013 4.65263 7.81056C2.82188 9.63984 1.25585 11.7161 0 13.979L3.68421 16.0842C4.74634 14.1432 6.0711 12.358 7.62105 10.779C9.7361 8.66595 12.2376 6.9792 14.9895 5.81056V5.7053ZM22.2947 29.3895L16.8421 24.0421L14.3158 26.5685L22.2947 34.5474L33.6842 23.1579L31.1579 20.6316L22.2947 29.3895Z" fill="white"/>
</svg>
