<svg width="24" height="24" viewBox="0 0 24 24" fill="none" xmlns="http://www.w3.org/2000/svg">
<path fill-rule="evenodd" clip-rule="evenodd" d="M8.72498 10.8898L10.7876 7.58893L11.7828 4.0135C13.1023 3.87406 14.285 4.83072 14.4245 6.15025C14.4491 6.38376 14.4394 6.61963 14.3957 6.85033L13.8675 9.63561H18.3922C19.1863 9.63561 19.8301 10.2794 19.8301 11.0735V11.2986C19.8301 11.536 19.764 11.7583 19.6489 11.9478C19.4957 12.2002 19.2558 12.3945 18.9696 12.4888C19.2553 12.5829 19.4956 12.777 19.649 13.0297C19.7639 13.2191 19.8301 13.4413 19.8301 13.679V13.9637C19.8301 14.2899 19.7054 14.5871 19.501 14.81C19.2951 15.0346 19.0084 15.1839 18.687 15.2118C18.9728 15.3393 19.2017 15.5705 19.3264 15.8572C19.393 16.0103 19.4299 16.1792 19.4299 16.3565V16.4684C19.4299 16.9233 19.1872 17.3225 18.8232 17.542C18.6422 17.6512 18.4311 17.7159 18.205 17.721L18.0335 17.7248C18.1267 17.8731 18.1904 18.0419 18.2162 18.2228C18.2248 18.2825 18.2292 18.3436 18.2292 18.4057V18.4339C18.2292 18.4573 18.2285 18.4806 18.2273 18.5037C18.191 19.1632 17.6448 19.6868 16.9763 19.6868H9.07611C8.84275 19.6868 8.6243 19.623 8.43724 19.5119C8.15186 19.8125 7.74841 20 7.30117 20H5.73506C4.87012 20 4.16895 19.2988 4.16895 18.4339V11.543C4.16895 10.678 4.87012 9.97687 5.73506 9.97687H7.30117C7.93297 9.97687 8.47739 10.351 8.72498 10.8898ZM8.86729 12.13V18.4339C8.86729 18.5695 8.85005 18.701 8.81767 18.8265C8.89198 18.8757 8.98051 18.9037 9.07611 18.9037H16.9763C17.2358 18.9037 17.4461 18.6934 17.4461 18.4339V18.4057C17.4461 18.3072 17.4183 18.2176 17.3705 18.1415C17.2205 17.9029 17.2104 17.602 17.3439 17.3538C17.4775 17.1056 17.7342 16.9483 18.016 16.942L18.1875 16.9381C18.4428 16.9324 18.6468 16.7238 18.6468 16.4684V16.3565C18.6468 16.1666 18.5339 16.0009 18.368 15.9269C18.042 15.7815 17.8556 15.4341 17.9148 15.082C17.9739 14.73 18.2637 14.4626 18.6193 14.4317C18.8586 14.4109 19.047 14.2089 19.047 13.9637V13.679C19.047 13.4721 18.9128 13.2945 18.7246 13.2325C18.4035 13.1267 18.1866 12.8268 18.1866 12.4887C18.1866 12.1506 18.4036 11.8508 18.7247 11.745C18.9131 11.683 19.047 11.5051 19.047 11.2986V11.0735C19.047 10.7118 18.7539 10.4187 18.3922 10.4187H13.8675C13.6343 10.4187 13.4132 10.3147 13.2644 10.1351C13.1157 9.95545 13.0547 9.71886 13.0982 9.48972L13.6263 6.70444C13.6558 6.54893 13.6624 6.38994 13.6457 6.23254C13.5701 5.51699 13.0394 4.95975 12.3716 4.81813L11.5419 7.79891C11.5218 7.87121 11.4914 7.94025 11.4516 8.00389L8.91946 12.0562C8.90329 12.0821 8.88585 12.1067 8.86729 12.13ZM5.73506 10.7599C5.30259 10.7599 4.952 11.1105 4.952 11.543V18.4339C4.952 18.8664 5.30259 19.2169 5.73506 19.2169H7.30117C7.73364 19.2169 8.08423 18.8664 8.08423 18.4339V11.543C8.08423 11.1105 7.73364 10.7599 7.30117 10.7599H5.73506Z" fill="white"/>
</svg>
