<svg width="24" height="24" viewBox="0 0 24 24" fill="none" xmlns="http://www.w3.org/2000/svg">
<path fill-rule="evenodd" clip-rule="evenodd" d="M6.68167 19.4659C6.80725 19.5676 6.9915 19.5483 7.09319 19.4227L9.86829 15.9957C10.1425 16.0913 10.4503 16.0913 10.7383 15.9764L11.385 15.7184C11.7157 15.5865 12.0843 15.5865 12.415 15.7184L13.0618 15.9764C13.3833 16.1047 13.7296 16.0897 14.0262 15.9584L16.9068 19.5156C17.0085 19.6412 17.1927 19.6605 17.3183 19.5588C17.3658 19.5204 17.4001 19.468 17.4163 19.409L17.8996 17.6518L19.7251 17.5412C19.8864 17.5314 20.0092 17.3927 19.9995 17.2315C19.9958 17.1706 19.9732 17.1124 19.9348 17.065L17.0174 13.4624C17.215 13.1879 17.2994 12.8354 17.2259 12.4823L17.0841 11.8006C17.0116 11.452 17.0756 11.0889 17.263 10.7862L17.6294 10.1941C17.9621 9.6564 17.8384 8.95462 17.3418 8.56316L16.795 8.13209C16.5154 7.91168 16.331 7.59239 16.28 7.24006L16.1801 6.55096C16.0893 5.92518 15.5434 5.46713 14.9114 5.48645L14.2154 5.50772C13.8596 5.51859 13.5131 5.39249 13.2475 5.15543L12.728 4.69177C12.2563 4.27071 11.5437 4.27071 11.072 4.69177L10.5525 5.15543C10.2869 5.39249 9.94042 5.51859 9.58457 5.50772L8.88859 5.48645C8.25657 5.46713 7.71069 5.92518 7.61996 6.55096L7.52005 7.24006C7.46897 7.59239 7.28462 7.91168 7.00504 8.13209L6.45821 8.56316C5.96164 8.95462 5.8379 9.6564 6.17064 10.1941L6.53705 10.7862C6.72439 11.0889 6.78841 11.452 6.71591 11.8006L6.57411 12.4823C6.49345 12.87 6.6031 13.257 6.84386 13.5408L4.06521 16.9721C4.02684 17.0195 4.00423 17.0777 4.00055 17.1385C3.99077 17.2998 4.11361 17.4385 4.2749 17.4483L6.10043 17.5589L6.58369 19.3161C6.5999 19.3751 6.63416 19.4275 6.68167 19.4659ZM16.4338 13.904L18.8297 16.8626L17.8553 16.9217C17.543 16.9406 17.2772 17.1561 17.1943 17.4579L16.9376 18.3913L14.5786 15.4781C14.5923 15.456 14.6055 15.4333 14.618 15.41L14.9475 14.7966C15.116 14.483 15.3985 14.246 15.7366 14.1345L16.3979 13.9165C16.4099 13.9125 16.4219 13.9084 16.4338 13.904ZM8.85248 14.7966L9.18205 15.41C9.21084 15.4636 9.24307 15.5143 9.27832 15.5619L7.06242 18.2983L6.80572 17.3649C6.72275 17.0632 6.45703 16.8477 6.14467 16.8288L5.17033 16.7697L7.46425 13.937L8.06343 14.1345C8.40154 14.246 8.68397 14.483 8.85248 14.7966ZM12.6861 15.039L13.3328 15.297C13.5746 15.3935 13.8504 15.2931 13.9736 15.0638L14.3032 14.4504C14.5604 13.9717 14.9915 13.61 15.5075 13.4399L16.1688 13.2218C16.4161 13.1403 16.5628 12.8862 16.5098 12.6312L16.368 11.9495C16.2573 11.4175 16.355 10.8633 16.641 10.4013L17.0074 9.80917C17.1444 9.58777 17.0934 9.2988 16.889 9.13761L16.3421 8.70654C15.9154 8.37013 15.634 7.88278 15.556 7.34501L15.4561 6.65591C15.4188 6.39824 15.194 6.20963 14.9338 6.21758L14.2378 6.23886C13.6946 6.25545 13.1658 6.06299 12.7604 5.70115L12.241 5.23749C12.0467 5.06411 11.7533 5.06411 11.559 5.23749L11.0396 5.70115C10.6342 6.06299 10.1054 6.25545 9.56223 6.23886L8.86625 6.21758C8.606 6.20963 8.38123 6.39824 8.34387 6.65591L8.24396 7.34501C8.16599 7.88278 7.88462 8.37013 7.45788 8.70654L6.91106 9.13761C6.70659 9.2988 6.65564 9.58777 6.79265 9.80917L7.15906 10.4013C7.445 10.8633 7.54272 11.4175 7.43206 11.9495L7.29026 12.6312C7.23723 12.8862 7.38395 13.1403 7.63121 13.2218L8.2925 13.4399C8.80856 13.61 9.23964 13.9717 9.49684 14.4504L9.82641 15.0638C9.94964 15.2931 10.2254 15.3935 10.4672 15.297L11.1139 15.039C11.6186 14.8376 12.1814 14.8376 12.6861 15.039Z" fill="white"/>
<path fill-rule="evenodd" clip-rule="evenodd" d="M8.6084 10.2909C8.6084 12.1088 10.0821 13.5826 11.9001 13.5826C13.718 13.5826 15.1917 12.1088 15.1917 10.2909C15.1917 8.47299 13.718 6.99927 11.9001 6.99927C10.0821 6.99927 8.6084 8.47299 8.6084 10.2909ZM14.4602 10.2909C14.4602 11.7049 13.314 12.8511 11.9 12.8511C10.4861 12.8511 9.33987 11.7049 9.33987 10.2909C9.33987 8.87697 10.4861 7.73074 11.9 7.73074C13.314 7.73074 14.4602 8.87697 14.4602 10.2909Z" fill="white"/>
</svg>
