<svg width="24" height="24" viewBox="0 0 24 24" fill="none" xmlns="http://www.w3.org/2000/svg">
<path d="M17.3331 18.8148C17.4911 18.8148 17.6294 18.9531 17.6294 19.1111C17.6294 19.2691 17.6294 20 17.6294 20H6.37012C6.37012 20 6.37012 19.2691 6.37012 19.1111C6.37012 18.9531 6.50839 18.8148 6.66641 18.8148H7.65407C7.69357 14.8642 10.2812 13.6 10.2812 12C10.2812 10.4 7.65407 10.2815 7.63431 5.18519H6.66641C6.50839 5.18519 6.37012 5.04691 6.37012 4.88889C6.37012 4.73086 6.37012 4 6.37012 4H17.6294C17.6294 4 17.6294 4.73086 17.6294 4.88889C17.6294 5.04691 17.4911 5.18519 17.3331 5.18519H16.4244C16.4047 10.3012 13.7775 10.4 13.7775 12C13.7775 13.6 16.3652 14.8642 16.4047 18.8148H17.3331ZM12.9479 12C12.9479 10.4 15.5751 10.2815 15.5948 5.18519H8.46394C8.4837 10.3012 11.1109 10.4 11.1109 12C11.1109 13.5407 8.5232 14.8642 8.4837 18.8148H8.93802C9.03678 18.4593 9.39234 18.0444 10.0047 17.7284L10.7948 17.3333C11.2886 17.0765 11.5849 16.8988 11.6837 16.8198C11.7825 16.7407 11.901 16.5235 12.0195 16.2272C12.1578 16.5432 12.2565 16.7407 12.3553 16.8198C12.4541 16.8988 12.7504 17.0765 13.2442 17.3333L14.0343 17.7284C14.6269 18.0444 14.9825 18.4593 15.0812 18.8148H15.6146C15.5356 14.8642 12.9479 13.5407 12.9479 12ZM12.3355 11.1309C12.2565 11.2691 12.1973 11.5457 12.1578 11.921C12.138 12.0395 12.1183 12.2173 12.0788 12.4543C12.0393 12.2173 12.0195 12.0395 11.9997 11.921C11.9602 11.5259 11.901 11.2691 11.822 11.1309C11.743 10.9926 11.5454 10.7358 11.2096 10.3802L10.459 9.57037C9.94543 9.01728 9.62938 8.62222 9.4911 8.38519C10.38 8.93827 11.2294 9.23457 12.059 9.23457C12.8886 9.23457 13.7578 8.95802 14.6467 8.38519C14.4886 8.62222 14.1726 9.01728 13.6788 9.57037L12.9479 10.3802C12.6121 10.7358 12.4146 10.9926 12.3355 11.1309Z" fill="white"/>
</svg>
