<svg width="16" height="16" viewBox="0 0 16 16" fill="none" xmlns="http://www.w3.org/2000/svg">
<g clip-path="url(#clip0_81_1709)">
<path d="M15.8617 4.11556L11.8844 0.138253C11.7001 -0.0460843 11.4033 -0.0460843 11.2221 0.138253L9.1725 2.18783C8.98816 2.37217 8.98816 2.66898 9.1725 2.85019L9.37558 3.05328L4.01106 5.73397C3.90796 5.78396 3.82673 5.87145 3.78611 5.97767L0.0368824 15.3507C0.0368824 15.3507 0.0368824 15.3539 0.0337581 15.3539C0.0275094 15.3664 0.024385 15.3789 0.0212606 15.3914C0.0118876 15.4164 0.00563886 15.4476 0.0025145 15.4788C-0.00998293 15.6038 0.024385 15.7257 0.0993695 15.8194C0.102494 15.8225 0.105618 15.8256 0.108743 15.8288C0.221219 15.9631 0.396183 16.0194 0.55865 15.9881C0.571147 15.985 0.583645 15.9819 0.593018 15.9787C0.596142 15.9787 0.599267 15.9787 0.599267 15.9756C0.614888 15.9725 0.63051 15.9662 0.646132 15.96L10.0161 12.2139C10.1223 12.1701 10.2098 12.092 10.2598 11.9889L12.9467 6.62442L13.1498 6.8275C13.2404 6.91811 13.3623 6.96497 13.481 6.96497C13.5997 6.96497 13.7216 6.91811 13.8122 6.8275L15.8617 4.77792C16.0461 4.59358 16.0461 4.29677 15.8617 4.11556ZM9.50368 11.4109L2.41764 14.2447L6.42619 10.2362C6.61053 10.3237 6.81674 10.3736 7.03232 10.3736C7.80716 10.3736 8.43828 9.74252 8.43828 8.96768C8.43828 8.19284 7.80716 7.56172 7.03232 7.56172C6.25748 7.56172 5.62636 8.19284 5.62636 8.96768C5.62636 9.18326 5.67635 9.38947 5.76383 9.57381L1.75528 13.5824L4.58907 6.49319L10.0723 3.75001L12.2469 5.92456L9.50368 11.4109ZM6.56366 8.96768C6.56366 8.70836 6.77299 8.49903 7.03232 8.49903C7.29164 8.49903 7.50097 8.70836 7.50097 8.96768C7.50097 9.22701 7.29164 9.43634 7.03232 9.43634C6.77299 9.43634 6.56366 9.22701 6.56366 8.96768ZM13.481 5.83395L13.1436 5.49652L10.5066 2.85957L10.1692 2.52214L11.5564 1.13492L14.8713 4.44986L13.481 5.83395Z" fill="white"/>
</g>
<defs>
<clipPath id="clip0_81_1709">
<rect width="16" height="15.9965" fill="white"/>
</clipPath>
</defs>
</svg>
